<svg width="17" height="17" viewBox="0 0 17 17" fill="none" xmlns="http://www.w3.org/2000/svg">
<path d="M4.23415 13.2614C3.78979 13.3228 3.41378 12.9348 3.48909 12.4926L4.08472 8.995C4.17596 8.45924 4.83727 8.2543 5.21549 8.64457L8.13439 11.6565C8.51261 12.0467 8.28703 12.7013 7.74867 12.7757L4.23415 13.2614Z" fill="#4D5DCC"/>
<path fill-rule="evenodd" clip-rule="evenodd" d="M12.786 1.21301C12.5649 0.984902 12.2008 0.979193 11.9727 1.20025L4.16939 8.76266L7.98484 12.6997L15.7882 5.13725C16.0163 4.91619 16.022 4.55207 15.8009 4.32397L12.786 1.21301ZM12.6614 3.14009C12.4914 2.96463 12.2113 2.96024 12.0358 3.13029L10.7883 4.33927C10.6128 4.50932 10.6085 4.78941 10.7785 4.96487L11.9875 6.21237C12.1575 6.38784 12.4376 6.39223 12.6131 6.22218L13.8606 5.0132C14.0361 4.84315 14.0404 4.56306 13.8704 4.38759L12.6614 3.14009Z" fill="#4D5DCC"/>
</svg>
